#!OML:ASF H:\MichaelJackson\Top Level 1\Subject 1\Session 1\male.ASF
:FULLY-SPECIFIED
:DEGREES
123
root 8.38686 15.9127 -22.9619 15.421 -11.8053 0.775901
lowerback 8.59192 3.3463 -2.91485
upperback 0.754814 4.03856 -2.77165
thorax -4.02765 2.02281 -1.72505
lowerneck -6.40638 -1.53862 2.29203
upperneck -9.92947 -1.95465 3.35334
head -2.02069 -1.12114 0.667317
rclavicle 8.48811e-014 -6.36111e-015
rhumerus -36.3004 3.92444 -88.1025
rradius 49.069
rwrist 4.56427
rhand -36.3739 -31.8906
rfingers 7.12502
rthumb -9.47057 -61.6578
lclavicle 8.48811e-014 -6.36111e-015
lhumerus -45.8437 -16.6976 92.9649
lradius 55.0672
lwrist 25.1001
lhand -17.8051 6.19696
lfingers 7.12502
lthumb 8.45842 36.0076
rfemur -27.3166 -14.2107 18.3607
rtibia 78.6225
rfoot -2.89453 -1.12154
rtoes 18.4387
lfemur -54.1399 -1.35945 -25.0792
ltibia 42.6346
lfoot -8.07992 -0.380312
ltoes 19.4896
124
root 8.35137 15.9207 -22.8635 15.7395 -11.2031 0.841346
lowerback 9.47888 3.21057 -2.68582
upperback 0.897136 3.84048 -2.77496
thorax -4.3596 1.91896 -1.88243
lowerneck -6.75611 -1.5835 2.21239
upperneck -10.4479 -2.00766 3.34728
head -2.13041 -1.15199 0.681175
rclavicle -4.39314e-014 5.56597e-014
rhumerus -36.8426 4.00343 -87.9586
rradius 49.7268
rwrist 4.17161
rhand -36.8058 -32.4079
rfingers 7.12502
rthumb -9.88728 -62.1557
lclavicle -4.39314e-014 5.56597e-014
lhumerus -46.0095 -17.7642 93.0537
lradius 55.9322
lwrist 25.8978
lhand -18.7768 5.80554
lfingers 7.12502
lthumb 7.52059 35.6518
rfemur -30.2871 -13.8441 18.6799
rtibia 80.2264
rfoot -5.67187 -0.599482
rtoes 15.9002
lfemur -54.3116 -1.63363 -25.1212
ltibia 43.0789
lfoot -8.61823 -0.547515
ltoes 18.7828
125
root 8.31659 15.9249 -22.7673 16.1035 -10.6332 0.822223
lowerback 10.3479 3.07077 -2.37747
upperback 1.04211 3.6534 -2.73811
thorax -4.67688 1.819 -2.03885
lowerneck -7.11628 -1.61488 2.0928
upperneck -10.9871 -2.04042 3.33664
head -2.2459 -1.17112 0.700579
rclavicle -8.54774e-015 7.55382e-015
rhumerus -37.3846 4.21076 -87.8302
rradius 50.4173
rwrist 3.6268
rhand -37.1597 -32.9008
rfingers 7.12502
rthumb -10.2287 -62.6322
lclavicle -8.54774e-015 7.55382e-015
lhumerus -46.1933 -18.8582 93.1888
lradius 56.7983
lwrist 26.8517
lhand -19.8194 5.50737
lfingers 7.12502
lthumb 6.51413 35.3872
rfemur -33.3163 -13.3204 19.0551
rtibia 81.4856
rfoot -7.92511 -0.245249
rtoes 14.1176
lfemur -54.5734 -1.88021 -25.0647
ltibia 43.5865
lfoot -9.07422 -0.709543
ltoes 18.2313
126
root 8.28183 15.9242 -22.6721 16.5168 -10.0921 0.754231
lowerback 11.1764 2.92293 -2.03663
upperback 1.18256 3.46904 -2.66798
thorax -4.97718 1.7196 -2.17341
lowerneck -7.46617 -1.63071 1.93694
upperneck -11.5554 -2.04941 3.31817
head -2.37385 -1.17692 0.724307
rclavicle 3.28989e-014 1.23246e-014
rhumerus -37.912 4.54779 -87.7166
rradius 51.1227
rwrist 2.97908
rhand -37.4182 -33.3415
rfingers 7.12502
rthumb -10.4781 -63.0603
lclavicle 3.28989e-014 1.23246e-014
lhumerus -46.4053 -19.9603 93.3746
lradius 57.6784
lwrist 27.9629
lhand -20.8741 5.31708
lfingers 7.12502
lthumb 5.49594 35.2258
rfemur -36.3874 -12.6553 19.4281
rtibia 82.41
rfoot -9.66876 -0.0477335
rtoes 12.9292
lfemur -54.9371 -2.11412 -24.9451
ltibia 44.1567
lfoot -9.48094 -0.865315
ltoes 17.9375
127
root 8.24659 15.9192 -22.5763 16.9613 -9.5978 0.670464
lowerback 11.954 2.7722 -1.70311
upperback 1.32294 3.28928 -2.58011
thorax -5.25126 1.62245 -2.27978
lowerneck -7.79769 -1.62989 1.76074
upperneck -12.1589 -2.0339 3.28761
head -2.51822 -1.16945 0.748566
rclavicle -7.35503e-015 1.15295e-014
rhumerus -38.4056 5.0014 -87.6252
rradius 51.8268
rwrist 2.28282
rhand -37.5842 -33.7358
rfingers 7.12502
rthumb -10.6382 -63.4465
lclavicle -7.35503e-015 1.15295e-014
lhumerus -46.6427 -21.0421 93.5973
lradius 58.5828
lwrist 29.1846
lhand -21.8751 5.2482
lfingers 7.12502
lthumb 4.52933 35.1798
rfemur -39.4529 -11.8652 19.7298
rtibia 83.0043
rfoot -10.95 -0.00326538
rtoes 12.2484
lfemur -55.3788 -2.33431 -24.7973
ltibia 44.7915
lfoot -9.86968 -0.999223
ltoes 17.804
128
root 8.21 15.9091 -22.48 17.4614 -9.11744 0.612457
lowerback 12.6526 2.61216 -1.40975
upperback 1.45395 3.10025 -2.49143
thorax -5.49425 1.52159 -2.35399
lowerneck -8.10176 -1.61788 1.58506
upperneck -12.8084 -2.00194 3.24604
head -2.6849 -1.15368 0.770457
rclavicle 3.598e-014 1.98785e-015
rhumerus -38.8422 5.5251 -87.5566
rradius 52.5059
rwrist 1.61941
rhand -37.6496 -34.0508
rfingers 7.12502
rthumb -10.7013 -63.7583
lclavicle 3.598e-014 1.98785e-015
lhumerus -46.8911 -22.09 93.8412
lradius 59.5093
lwrist 30.4498
lhand -22.7726 5.31807
lfingers 7.12502
lthumb 3.66273 35.2663
rfemur -42.5218 -11.0062 19.916
rtibia 83.2249
rfoot -11.8128 -0.117753
rtoes 11.9821
lfemur -55.8637 -2.57374 -24.6586
ltibia 45.3278
lfoot -10.1701 -1.13654
ltoes 17.8165
129
root 8.17148 15.8934 -22.382 18.0045 -8.65928 0.597275
lowerback 13.277 2.44994 -1.17882
upperback 1.57804 2.90568 -2.41295
thorax -5.70669 1.41943 -2.39615
lowerneck -8.39569 -1.59754 1.42955
upperneck -13.4902 -1.9599 3.19162
head -2.86704 -1.13315 0.785635
rclavicle 3.75703e-014 -6.95746e-015
rhumerus -39.1894 6.07627 -87.5131
rradius 53.1315
rwrist 1.07555
rhand -37.6316 -34.2727
rfingers 7.12502
rthumb -10.6839 -63.9811
lclavicle 3.75703e-014 -6.95746e-015
lhumerus -47.129 -23.0877 94.0903
lradius 60.4403
lwrist 31.6796
lhand -23.4986 5.46394
lfingers 7.12502
lthumb 2.96159 35.4231
rfemur -45.5624 -10.0966 19.9497
rtibia 83.1466
rfoot -12.4958 -0.412299
rtoes 11.7399
lfemur -56.433 -2.83223 -24.542
ltibia 45.9392
lfoot -10.5324 -1.24575
ltoes 17.9123
130
root 8.13377 15.9199 -22.285 18.5929 -8.20408 0.629863
lowerback 13.8344 2.28537 -1.00137
upperback 1.68842 2.70388 -2.35487
thorax -5.89845 1.31498 -2.42261
lowerneck -8.67925 -1.57617 1.31633
upperneck -14.1961 -1.91931 3.12645
head -3.06241 -1.11463 0.790815
rclavicle -3.18055e-014 1.98785e-014
rhumerus -39.4376 6.60546 -87.5004
rradius 53.6897
rwrist 0.685208
rhand -37.5327 -34.4179
rfingers 7.12502
rthumb -10.5885 -64.1312
lclavicle -3.18055e-014 1.98785e-014
lhumerus -47.3378 -24.0239 94.3301
lradius 61.3452
lwrist 32.7624
lhand -24.0301 5.62235
lfingers 7.12502
lthumb 2.44834 35.588
rfemur -48.3788 -9.17518 19.8234
rtibia 82.5409
rfoot -13.0368 -0.906819
rtoes 11.4487
lfemur -56.9038 -3.11487 -24.4447
ltibia 46.4926
lfoot -11.0323 -1.32598
ltoes 18.0116
131
root 8.09122 15.895 -22.1841 19.2275 -7.74111 0.703158
lowerback 14.3349 2.11925 -0.857437
upperback 1.77515 2.49681 -2.32258
thorax -6.08451 1.20867 -2.45189
lowerneck -8.93927 -1.55902 1.25204
upperneck -14.9183 -1.88701 3.05977
head -3.2709 -1.1023 0.787805
rclavicle 3.16068e-014 -2.34566e-014
rhumerus -39.5735 7.06259 -87.5239
rradius 54.153
rwrist 0.467547
rhand -37.3784 -34.4837
rfingers 7.12502
rthumb -10.4397 -64.2045
lclavicle 3.16068e-014 -2.34566e-014
lhumerus -47.5244 -24.8993 94.5643
lradius 62.1955
lwrist 33.5855
lhand -24.4429 5.73797
lfingers 7.12502
lthumb 2.04962 35.7079
rfemur -51.2919 -8.26666 19.5399
rtibia 81.888
rfoot -13.6644 -1.61423
rtoes 11.0505
lfemur -57.6339 -3.43809 -24.3629
ltibia 47.2683
lfoot -11.5931 -1.36361
ltoes 17.89
132
root 8.04639 15.8644 -22.0813 19.9058 -7.24422 0.797042
lowerback 14.7874 1.93632 -0.729358
upperback 1.84616 2.26767 -2.29498
thorax -6.26221 1.09218 -2.46869
lowerneck -9.21609 -1.53934 1.2094
upperneck -15.6367 -1.85335 2.99702
head -3.47843 -1.08982 0.782184
rclavicle 5.66536e-015 -1.66979e-014
rhumerus -39.5615 7.47342 -87.5703
rradius 54.5117
rwrist 0.4045
rhand -37.2111 -34.4629
rfingers 7.12502
rthumb -10.2783 -64.1918
lclavicle 5.66536e-015 -1.66979e-014
lhumerus -47.6378 -25.6729 94.7945
lradius 62.9435
lwrist 34.1105
lhand -24.8133 5.70195
lfingers 7.12502
lthumb 1.69186 35.675
rfemur -54.1273 -7.40259 19.1278
rtibia 80.9666
rfoot -14.3095 -2.5173
rtoes 10.6581
lfemur -58.4353 -3.8076 -24.2645
ltibia 48.132
lfoot -12.2559 -1.34623
ltoes 17.5037
133
root 8.00018 15.8292 -21.9756 20.6099 -6.73383 0.88154
lowerback 15.2123 1.75691 -0.565828
upperback 1.89458 2.04954 -2.28796
thorax -6.44672 0.980047 -2.5267
lowerneck -9.47182 -1.5317 1.22342
upperneck -16.3543 -1.83935 2.93643
head -3.69295 -1.09006 0.767907
rclavicle 3.08116e-015 -3.37934e-015
rhumerus -39.423 7.75304 -87.6482
rradius 54.7645
rwrist 0.479167
rhand -37.0561 -34.3542
rfingers 7.12502
rthumb -10.1287 -64.0904
lclavicle 3.08116e-015 -3.37934e-015
lhumerus -47.721 -26.4036 95.023
lradius 63.5943
lwrist 34.3023
lhand -25.1584 5.53208
lfingers 7.12502
lthumb 1.3586 35.5075
rfemur -56.8531 -6.57427 18.6037
rtibia 79.841
rfoot -15.0334 -3.59189
rtoes 10.3347
lfemur -59.3433 -4.20802 -24.1191
ltibia 49.2252
lfoot -13.0852 -1.24602
ltoes 16.8806
